<?xml version="1.0" encoding="utf-8"?>
<!-- Generator: Adobe Illustrator 16.0.0, SVG Export Plug-In . SVG Version: 6.00 Build 0)  -->
<!DOCTYPE svg PUBLIC "-//W3C//DTD SVG 1.1//EN" "http://www.w3.org/Graphics/SVG/1.1/DTD/svg11.dtd">
<svg version="1.1" xmlns="http://www.w3.org/2000/svg" xmlns:xlink="http://www.w3.org/1999/xlink" x="0px" y="0px" width="853px"
	 height="220px" viewBox="0 0 853 220" enable-background="new 0 0 853 220" xml:space="preserve">
<g id="Modele" display="none">
	<image display="inline" overflow="visible" width="853" height="220" xlink:href="../logo_ACS_slide.png" >
	</image>
</g>
<g id="access">
	<g>
		<path fill="#FFFFFF" d="M127.891,36.25h17.228l22.183,84.25H153.26l-5.191-20.649h-24.662l-5.428,20.649h-14.042L127.891,36.25z
			 M145.827,89.113l-9.676-41.535h-0.236l-10.03,41.535H145.827z"/>
		<path fill="#FFFFFF" d="M225.004,90.293v1.77c0,15.221-6.136,30.089-25.959,30.089c-21.239,0-27.847-13.688-27.847-43.777
			c0-30.089,6.607-43.777,27.965-43.777c23.953,0,25.369,17.7,25.369,26.431v1.534H211.08v-1.416c0-7.788-2.36-16.755-12.036-16.401
			c-9.912,0-14.396,6.136-14.396,33.275s4.484,33.982,14.396,33.982c11.21,0,12.508-12.507,12.508-20.295v-1.416H225.004z"/>
		<path fill="#FFFFFF" d="M286.246,90.293v1.77c0,15.221-6.136,30.089-25.959,30.089c-21.239,0-27.847-13.688-27.847-43.777
			c0-30.089,6.607-43.777,27.965-43.777c23.953,0,25.369,17.7,25.369,26.431v1.534h-13.452v-1.416
			c0-7.788-2.36-16.755-12.036-16.401c-9.912,0-14.396,6.136-14.396,33.275s4.484,33.982,14.396,33.982
			c11.21,0,12.508-12.507,12.508-20.295v-1.416H286.246z"/>
		<path fill="#FFFFFF" d="M295.687,36.25h45.546v11.328h-32.095v23.363h30.207v11.328h-30.207v26.903h33.039V120.5h-46.49V36.25z"/>
		<path fill="#FFFFFF" d="M362.827,94.423v2.124c0,10.266,4.484,15.457,13.806,15.457c8.496,0,12.744-6.018,12.744-12.271
			c0-8.85-4.484-12.743-12.036-14.985l-9.204-3.186c-12.271-4.72-17.582-11.091-17.582-23.127c0-15.339,10.384-23.835,26.195-23.835
			c21.593,0,23.835,13.452,23.835,22.184v1.888h-13.451V56.9c0-7.669-3.422-12.153-11.8-12.153c-5.782,0-11.328,3.186-11.328,12.153
			c0,7.198,3.658,10.856,12.625,14.278l9.086,3.304c11.917,4.248,17.109,10.738,17.109,22.301c0,17.936-10.855,25.37-27.847,25.37
			c-20.885,0-25.605-13.924-25.605-25.724v-2.006H362.827z"/>
		<path fill="#FFFFFF" d="M424.068,94.423v2.124c0,10.266,4.484,15.457,13.806,15.457c8.496,0,12.744-6.018,12.744-12.271
			c0-8.85-4.484-12.743-12.036-14.985l-9.203-3.186c-12.272-4.72-17.582-11.091-17.582-23.127c0-15.339,10.384-23.835,26.195-23.835
			c21.594,0,23.835,13.452,23.835,22.184v1.888h-13.451V56.9c0-7.669-3.422-12.153-11.8-12.153c-5.782,0-11.327,3.186-11.327,12.153
			c0,7.198,3.657,10.856,12.625,14.278l9.086,3.304c11.918,4.248,17.109,10.738,17.109,22.301c0,17.936-10.855,25.37-27.847,25.37
			c-20.886,0-25.605-13.924-25.605-25.724v-2.006H424.068z"/>
	</g>
</g>
<g id="Rectangle_rouge">
	<rect x="477.5" fill="#D31D45" width="291.5" height="152.5"/>
</g>
<g id="Code">
	<g>
		<path fill="#FFFFFF" d="M554.264,91.035v1.785c0,15.352-6.188,30.346-26.181,30.346c-21.421,0-28.085-13.804-28.085-44.15
			c0-30.346,6.664-44.15,28.204-44.15c24.157,0,25.586,17.851,25.586,26.657v1.547h-13.566v-1.428
			c0-7.854-2.381-16.898-12.139-16.541c-9.996,0-14.519,6.188-14.519,33.559c0,27.371,4.522,34.273,14.519,34.273
			c11.306,0,12.614-12.614,12.614-20.468v-1.428H554.264z"/>
		<path fill="#FFFFFF" d="M561.759,79.016c0-30.346,8.568-44.15,28.085-44.15s28.085,13.804,28.085,44.15
			c0,30.346-8.568,44.15-28.085,44.15S561.759,109.362,561.759,79.016z M604.362,78.659c0-28.561-6.427-33.559-14.519-33.559
			c-8.093,0-14.519,4.998-14.519,33.559c0,29.275,6.426,34.273,14.519,34.273C597.936,112.932,604.362,107.934,604.362,78.659z"/>
		<path fill="#FFFFFF" d="M629.946,36.532h24.157c26.657,0,29.989,17.375,29.989,42.484c0,25.11-3.332,42.484-29.989,42.484h-24.157
			V36.532z M643.513,111.266h11.186c11.187,0,15.828-7.378,15.828-32.25c0-23.919-4.046-32.25-15.828-32.25h-11.186V111.266z"/>
		<path fill="#FFFFFF" d="M696.11,36.532h45.935v11.424h-32.368v23.563h30.465v11.424h-30.465v27.133h33.32V121.5H696.11V36.532z"/>
	</g>
</g>
<g id="_x3C_">
	<g>
		<path fill="#D31D45" d="M0.251,76.931l67.295-30.057v11.438l-53.73,23.54l53.73,23.541v11.438L0.251,86.773V76.931z"/>
	</g>
</g>
<g id="_x3E_">
	<g>
		<path fill="#D31D45" d="M853.547,87.273l-67.296,30.057v-11.438l53.73-23.541l-53.73-23.54V47.374l67.296,30.057V87.273z"/>
	</g>
</g>
<g id="Trait">
	<path fill="#FFFFFF" stroke="#FFFFFF" stroke-miterlimit="10" d="M769.165,153.667H99C322.468,153.999,545.937,154,769.165,153.667
		L769.165,153.667z"/>
</g>
<g id="School">
	<g>
		<path fill="#FFFFFF" d="M107.39,209.567c0,5.188,3.363,9.179,9.235,9.179c5.644,0,9.406-4.048,9.406-9.235
			c0-5.302-2.85-7.126-7.411-8.722l-4.618-1.597c-5.359-1.824-8.266-4.446-8.266-9.976c0-6.557,4.503-10.604,10.888-10.604
			c7.525,0,10.888,4.275,10.888,11.059h-2.394c0-5.473-2.508-9.121-8.266-9.121c-4.561,0-8.722,2.109-8.722,8.438
			c0,4.504,2.451,6.67,5.985,7.867l6.043,2.109c5.245,1.824,8.266,4.389,8.266,10.375c0,7.24-5.358,11.344-11.8,11.344
			c-9.406,0-11.629-6.612-11.629-10.546v-2.679h2.395V209.567z"/>
		<path fill="#FFFFFF" d="M249.834,190.983c0-5.473-2.908-10.433-8.893-10.433c-8.095,0-10.774,7.582-10.774,19.041
			c0,10.945,2.223,19.154,10.432,19.154c7.867,0,9.749-9.235,9.749-12.428h2.394c0,4.789-2.394,14.365-12.542,14.365
			c-8.836,0-12.428-7.81-12.428-20.979c0-12.77,3.592-21.092,13.055-21.092c9.521,0,11.401,8.38,11.401,12.37H249.834z"/>
		<path fill="#FFFFFF" d="M352.774,179.297h2.394v17.844h17.843v-17.844h2.394V220h-2.394v-20.693h-17.843V220h-2.394V179.297z"/>
		<path fill="#FFFFFF" d="M502.516,199.648c0,17.844-7.354,21.035-13.111,21.035c-7.811,0-13.169-5.244-13.169-21.035
			s5.701-21.035,13.169-21.035C497.499,178.613,502.516,183.857,502.516,199.648z M478.63,199.648
			c0,11.174,2.28,19.098,10.774,19.098c7.468,0,10.717-6.157,10.717-19.098c0-11.002-2.451-19.098-10.717-19.098
			C481.423,180.551,478.63,188.476,478.63,199.648z"/>
		<path fill="#FFFFFF" d="M628.314,199.648c0,17.844-7.354,21.035-13.111,21.035c-7.811,0-13.169-5.244-13.169-21.035
			s5.701-21.035,13.169-21.035C623.298,178.613,628.314,183.857,628.314,199.648z M604.429,199.648
			c0,11.174,2.28,19.098,10.774,19.098c7.468,0,10.717-6.157,10.717-19.098c0-11.002-2.451-19.098-10.717-19.098
			C607.222,180.551,604.429,188.476,604.429,199.648z"/>
		<path fill="#FFFFFF" d="M729.144,179.297h2.395v38.537h17.045V220h-19.439V179.297z"/>
	</g>
</g>
</svg>
